<svg viewBox="0 0 800 800" width="100%" height="100%" xmlns="http://www.w3.org/2000/svg" >
  <rect width="100" height="100" x="100" />
  <rect width="100" height="100" x="300" />
  <rect width="100" height="100" x="500" />
  <rect width="100" height="100" x="700" />
  <rect width="100" height="100" x="0" y="100" />
  <rect width="100" height="100" x="200" y="100" />
  <rect width="100" height="100" x="400" y="100" />
  <rect width="100" height="100" x="600" y="100" />
  <rect width="100" height="100" x="100" y="200" />
  <rect width="100" height="100" x="300" y="200" />
  <rect width="100" height="100" x="500" y="200" />
  <rect width="100" height="100" x="700" y="200" />
  <rect width="100" height="100" x="0" y="300" />
  <rect width="100" height="100" x="200" y="300" />
  <rect width="100" height="100" x="400" y="300" />
  <rect width="100" height="100" x="600" y="300" />
  <rect width="100" height="100" x="100" y="400" />
  <rect width="100" height="100" x="300" y="400" />
  <rect width="100" height="100" x="500" y="400" />
  <rect width="100" height="100" x="700" y="400" />
  <rect width="100" height="100" x="0" y="500" />
  <rect width="100" height="100" x="200" y="500" />
  <rect width="100" height="100" x="400" y="500" />
  <rect width="100" height="100" x="600" y="500" />
  <rect width="100" height="100" x="100" y="600" />
  <rect width="100" height="100" x="300" y="600" />
  <rect width="100" height="100" x="500" y="600" />
  <rect width="100" height="100" x="700" y="600" />
  <rect width="100" height="100" x="0" y="700" />
  <rect width="100" height="100" x="200" y="700" />
  <rect width="100" height="100" x="400" y="700" />
  <rect width="100" height="100" x="600" y="700" />
</svg>